    <svg width="161" height="36" viewBox="0 0 161 36" fill="none" xmlns="http://www.w3.org/2000/svg">
    <path d="M36.9563 16.9999L35.6868 14.8021L31.8329 8.12505C31.8148 8.09344 31.8072 8.05682 31.8113 8.02059C31.8155 7.98435 31.8311 7.9504 31.856 7.9237C33.1255 6.51936 33.5623 4.34546 32.4046 2.19373C32.0501 1.53993 31.5101 1.0056 30.8526 0.658001C27.7812 -0.973284 24.6935 0.631552 23.8233 3.24741C23.8123 3.28222 23.7905 3.3126 23.761 3.3341C23.7315 3.3556 23.6959 3.36708 23.6595 3.36686H13.992C13.737 3.36621 13.4863 3.43283 13.2652 3.56C13.0441 3.68718 12.8604 3.8704 12.7328 4.09121L11.4649 6.28474L9.22361 10.1676C9.09479 10.3927 8.9002 10.573 8.66595 10.6843C8.43171 10.7956 8.16901 10.8327 7.91312 10.7904C6.61799 10.5754 5.19659 10.7238 3.76154 11.3433C2.6524 11.8202 1.30608 13.0931 0.783077 14.1784C-1.663 19.2582 1.97753 24.2579 6.7801 24.2579C7.55122 24.2586 8.31676 24.1273 9.04359 23.8697C9.08144 23.8556 9.12305 23.8555 9.16101 23.8692C9.19897 23.883 9.23082 23.9097 9.25091 23.9448L11.9137 28.5562L13.1815 30.7532C13.3088 30.9736 13.4919 31.1567 13.7123 31.284C13.9328 31.4113 14.1828 31.4783 14.4374 31.4784H22.4744C22.5107 31.4783 22.5461 31.4899 22.5754 31.5114C22.6048 31.5329 22.6264 31.5631 22.6373 31.5978C22.9161 32.4416 23.3788 33.213 23.9919 33.8562C24.605 34.4994 25.3533 34.9985 26.1828 35.3174C27.0122 35.6362 27.9022 35.767 28.7883 35.7001C29.6744 35.6332 30.5346 35.3704 31.3068 34.9306C32.079 34.4908 32.7439 33.8851 33.2536 33.1571C33.7632 32.4291 34.1048 31.5971 34.2537 30.721C34.4027 29.8449 34.3552 28.9467 34.1148 28.0912C33.8744 27.2357 33.4471 26.4442 32.8636 25.774C32.8395 25.7471 32.8246 25.7134 32.8209 25.6775C32.8172 25.6416 32.825 25.6055 32.8431 25.5743L35.6868 20.6472L36.9563 18.4511C37.0838 18.2305 37.1509 17.9803 37.1509 17.7255C37.1509 17.4707 37.0838 17.2204 36.9563 16.9999ZM26.7215 3.79601C27.2181 2.95477 28.3562 2.53927 29.4654 3.21925C29.5874 3.2936 29.6931 3.39201 29.7759 3.50848C30.1931 4.10571 30.2682 4.68758 30.1436 5.19181C30.0781 5.45051 29.9577 5.69212 29.7908 5.90035C29.6239 6.10858 29.4143 6.27858 29.176 6.39888C28.9378 6.51918 28.6765 6.58697 28.4099 6.59769C28.1432 6.60841 27.8774 6.5618 27.6302 6.46101C27.3831 6.36021 27.1605 6.20759 26.9774 6.01342C26.7943 5.81926 26.655 5.58808 26.5689 5.33548C26.4828 5.08289 26.4518 4.81475 26.4781 4.54918C26.5045 4.28361 26.5875 4.02677 26.7215 3.79601ZM10.7389 18.1295C10.6109 18.8999 10.2614 19.6165 9.73316 20.1917C9.20489 20.767 8.52061 21.176 7.76382 21.369C6.84153 21.6036 5.79552 21.5081 4.74611 21.0013C4.16358 20.7188 3.68261 20.2632 3.36907 19.6968C1.66271 16.5997 3.85197 13.4626 6.7818 13.4626C6.9562 13.4619 7.13042 13.4739 7.3031 13.4984C7.99056 13.5858 8.64307 13.8521 9.19546 14.2705C9.44172 14.4558 9.66587 14.6688 9.8635 14.9053C10.3089 15.4369 10.6075 16.0757 10.7295 16.7584C10.7735 16.9953 10.7955 17.2358 10.7952 17.4768C10.7955 17.6964 10.7767 17.9157 10.7389 18.132V18.1295ZM11.5118 12.6179L11.5076 12.6136C11.4482 12.5561 11.4097 12.4803 11.3983 12.3984C11.3868 12.3165 11.4031 12.2331 11.4444 12.1615L14.4186 7.0108C14.5459 6.79005 14.729 6.60673 14.9497 6.47927C15.1703 6.35181 15.4206 6.28471 15.6754 6.28474H21.756C21.831 6.28487 21.9039 6.30972 21.9634 6.35543C22.0229 6.40115 22.0656 6.46518 22.085 6.53764C22.1045 6.61009 22.0995 6.68693 22.0708 6.75627C22.0422 6.8256 21.9915 6.88357 21.9266 6.92121L11.9555 12.6751C11.886 12.7159 11.805 12.7329 11.7249 12.7235C11.6449 12.7141 11.57 12.6788 11.5118 12.623V12.6179ZM21.6707 28.5562H16.125C15.8703 28.5563 15.62 28.4894 15.3994 28.3621C15.1788 28.2348 14.9956 28.0516 14.8683 27.831L12.2516 23.2989C12.2046 23.2176 12.1858 23.123 12.1981 23.0299C12.2103 22.9368 12.253 22.8504 12.3194 22.784C12.3858 22.7176 12.4722 22.675 12.5653 22.6627C12.6584 22.6504 12.753 22.6692 12.8343 22.7162L21.8328 27.9112C21.9016 27.9464 21.9565 28.004 21.9884 28.0744C22.0202 28.1449 22.0272 28.2241 22.0082 28.299C21.9891 28.374 21.9452 28.4403 21.8836 28.487C21.822 28.5337 21.7463 28.5581 21.669 28.5562H21.6707ZM23.9657 25.6102C23.9395 25.6393 23.9041 25.6584 23.8654 25.6645C23.8267 25.6705 23.7872 25.6631 23.7533 25.6434L13.7992 19.8981C13.6417 19.8069 13.5175 19.6677 13.4447 19.5008C13.372 19.334 13.3545 19.1482 13.3948 18.9707C13.6186 17.9681 13.6143 16.9281 13.382 15.9274C13.3402 15.7491 13.3569 15.5621 13.4295 15.394C13.5022 15.2259 13.627 15.0857 13.7856 14.994L24.7694 8.65061C24.9076 8.57093 25.0653 8.53157 25.2247 8.537C25.3842 8.54243 25.5388 8.59243 25.6713 8.68133C25.8943 8.83287 26.1301 8.96476 26.376 9.0755C26.5252 9.14316 26.6518 9.25236 26.7406 9.39004C26.8294 9.52772 26.8767 9.68806 26.8768 9.8519V23.7588C26.8769 23.7966 26.8643 23.8335 26.8412 23.8634C26.818 23.8934 26.7855 23.9148 26.7488 23.9243C25.6821 24.2174 24.7177 24.8011 23.9632 25.6102H23.9657ZM28.3409 32.8776C27.5026 32.8776 26.6987 32.5446 26.106 31.9519C25.5132 31.3591 25.1803 30.5552 25.1803 29.717C25.1803 28.8787 25.5132 28.0748 26.106 27.4821C26.6987 26.8893 27.5026 26.5564 28.3409 26.5564C28.5208 26.5564 28.7003 26.5721 28.8775 26.6033C29.6656 26.7283 30.3771 27.1471 30.8689 27.7754C31.3608 28.4038 31.5964 29.1951 31.5284 29.9901C31.4604 30.7851 31.0938 31.5249 30.5024 32.0607C29.911 32.5964 29.1387 32.8882 28.3409 32.8776ZM33.5845 18.4494L30.5071 23.781C30.4629 23.8574 30.3943 23.9168 30.3123 23.9496C30.2303 23.9824 30.1397 23.9867 30.0549 23.9618H30.0489C29.9774 23.9406 29.9146 23.8969 29.87 23.837C29.8254 23.7772 29.8014 23.7046 29.8015 23.6299V11.7332C29.7988 11.6559 29.8224 11.5799 29.8684 11.5178C29.9145 11.4556 29.9803 11.411 30.0551 11.3911C30.1298 11.3713 30.2091 11.3775 30.2799 11.4086C30.3508 11.4397 30.4089 11.494 30.4448 11.5625L33.5845 17.0016C33.711 17.222 33.7773 17.4717 33.7768 17.7258C33.7764 17.9799 33.7092 18.2295 33.582 18.4494H33.5845Z" fill="#4447E2"/>
    <path d="M52.0495 20.2163V6.39478C52.0488 6.34349 52.0583 6.29257 52.0775 6.24498C52.0966 6.19739 52.1251 6.15409 52.1611 6.11757C52.1971 6.08106 52.2401 6.05207 52.2874 6.03229C52.3347 6.0125 52.3855 6.00232 52.4368 6.00232H55.603C55.6544 6.0022 55.7053 6.0123 55.7528 6.03203C55.8003 6.05175 55.8434 6.08071 55.8795 6.11722C55.9157 6.15373 55.9443 6.19707 55.9636 6.24472C55.9829 6.29237 55.9926 6.34338 55.992 6.39478V20.2163C55.992 20.3193 55.9511 20.418 55.8783 20.4908C55.8055 20.5636 55.7068 20.6045 55.6038 20.6045H52.4368C52.334 20.6043 52.2355 20.5633 52.1629 20.4905C52.0903 20.4178 52.0495 20.3191 52.0495 20.2163Z" fill="#4447E2"/>
    <path d="M79.1269 20.2163V11.9149C79.1271 11.828 79.0981 11.7436 79.0446 11.6752C78.9911 11.6067 78.9162 11.5582 78.8318 11.5373C78.7475 11.5165 78.6586 11.5246 78.5794 11.5602C78.5002 11.5959 78.4352 11.6571 78.3949 11.734L73.8167 20.3964C73.7839 20.4586 73.7349 20.5108 73.6748 20.5473C73.6146 20.5838 73.5458 20.6033 73.4754 20.6037H70.1582C70.0879 20.6033 70.019 20.5838 69.9589 20.5473C69.8988 20.5108 69.8497 20.4586 69.817 20.3964L65.2345 11.7331C65.194 11.6567 65.129 11.5959 65.05 11.5606C64.9709 11.5252 64.8824 11.5173 64.7983 11.5381C64.7143 11.5589 64.6396 11.6072 64.5862 11.6753C64.5327 11.7434 64.5036 11.8274 64.5034 11.914V20.2163C64.5034 20.3193 64.4625 20.418 64.3897 20.4908C64.3169 20.5636 64.2181 20.6045 64.1152 20.6045H60.9498C60.8469 20.6045 60.7482 20.5636 60.6754 20.4908C60.6025 20.418 60.5616 20.3193 60.5616 20.2163V6.39478C60.5615 6.34377 60.5715 6.29324 60.591 6.24609C60.6104 6.19894 60.639 6.1561 60.6751 6.12003C60.7112 6.08396 60.754 6.05537 60.8012 6.03591C60.8483 6.01644 60.8988 6.00647 60.9498 6.00658H65.6842C65.7543 6.00673 65.8231 6.02593 65.8833 6.06215C65.9434 6.09837 65.9925 6.15023 66.0254 6.2122L71.4713 16.4163C71.5046 16.4777 71.5539 16.529 71.614 16.5648C71.674 16.6006 71.7427 16.6194 71.8126 16.6194C71.8825 16.6194 71.9511 16.6006 72.0112 16.5648C72.0712 16.529 72.1205 16.4777 72.1538 16.4163L77.6057 6.20794C77.6385 6.1459 77.6877 6.09399 77.7478 6.05776C77.8079 6.02154 77.8768 6.00237 77.9469 6.00232H82.6608C82.712 6.00243 82.7628 6.01269 82.8101 6.03252C82.8573 6.05234 82.9002 6.08134 82.9362 6.11783C82.9723 6.15432 83.0007 6.19758 83.0199 6.24511C83.0391 6.29265 83.0487 6.34352 83.0481 6.39478V20.2163C83.0481 20.3193 83.0072 20.418 82.9344 20.4908C82.8616 20.5636 82.7629 20.6045 82.6599 20.6045H79.5151C79.4121 20.6045 79.3134 20.5636 79.2406 20.4908C79.1678 20.418 79.1269 20.3193 79.1269 20.2163Z" fill="#4447E2"/>
    <path d="M101.068 9.51745C101.068 9.58135 101.052 9.64427 101.022 9.70062C100.992 9.75697 100.949 9.805 100.895 9.84045C100.842 9.8759 100.781 9.89767 100.717 9.90383C100.654 9.91 100.59 9.90036 100.531 9.87578C100.36 9.80667 100.177 9.73415 99.9736 9.65737C99.5185 9.48673 99.0049 9.32576 98.4327 9.17447C97.8167 9.01327 97.1924 8.88539 96.5625 8.79139C95.8766 8.68806 95.1838 8.63673 94.4902 8.63781C93.9214 8.63781 93.4379 8.65545 93.0397 8.69071C92.701 8.71794 92.364 8.76408 92.0304 8.82893C91.8076 8.86988 91.5901 8.9357 91.382 9.02516C91.2493 9.08319 91.1257 9.16021 91.0151 9.25381C90.941 9.31619 90.8842 9.39674 90.8505 9.48758C90.8273 9.5561 90.8146 9.62772 90.8129 9.70003C90.8129 9.91275 90.9193 10.0987 91.132 10.258C91.3983 10.4448 91.6923 10.5888 92.0031 10.6846C92.4257 10.8238 92.8551 10.9411 93.2897 11.0361C93.7789 11.1453 94.2976 11.2591 94.8459 11.3774C95.3942 11.4957 95.961 11.6231 96.5463 11.7596C97.131 11.8978 97.6978 12.0591 98.2467 12.2434C98.7802 12.421 99.3005 12.6359 99.8038 12.8867C100.268 13.114 100.7 13.4008 101.09 13.7398C101.45 14.0559 101.746 14.4386 101.961 14.8669C102.18 15.3202 102.289 15.8189 102.28 16.3224C102.28 17.0237 102.156 17.6261 101.908 18.1295C101.67 18.6193 101.331 19.0535 100.915 19.4041C100.484 19.7604 99.9976 20.0424 99.4744 20.2385C98.9178 20.4506 98.3433 20.6125 97.7578 20.7223C97.1575 20.8358 96.5505 20.9105 95.9406 20.9458C95.328 20.9805 94.7453 20.9982 94.1924 20.9987C92.8475 21.0076 91.5048 20.8885 90.1824 20.6429C89.1653 20.4536 88.1638 20.1886 87.1861 19.8503C87.1108 19.823 87.0459 19.773 87.0001 19.7074C86.9543 19.6417 86.9298 19.5635 86.9301 19.4835V16.906C86.9301 16.8402 86.9469 16.7755 86.9788 16.718C87.0107 16.6604 87.0567 16.6119 87.1125 16.577C87.1683 16.5421 87.232 16.522 87.2977 16.5185C87.3634 16.515 87.4289 16.5283 87.4881 16.5571C88.372 16.9787 89.298 17.3056 90.2507 17.5322C91.5582 17.8445 92.8985 17.9981 94.2427 17.9895C94.9277 18.0002 95.6125 17.9557 96.2904 17.8565C96.7159 17.7958 97.1319 17.6812 97.5283 17.5152C97.8264 17.377 98.0283 17.2262 98.1341 17.063C98.2319 16.9261 98.2874 16.7636 98.2936 16.5954C98.2917 16.4758 98.2619 16.3583 98.2065 16.2522C98.1511 16.1461 98.0717 16.0545 97.9746 15.9846C97.7118 15.7845 97.4174 15.6299 97.1035 15.5273C96.6823 15.3818 96.253 15.2613 95.8177 15.1664C95.3285 15.056 94.8095 14.9462 94.2606 14.837C93.7118 14.7278 93.1467 14.609 92.5654 14.4804C91.9846 14.3536 91.4195 14.2031 90.8701 14.0291C90.3384 13.8623 89.8184 13.6599 89.3139 13.4233C88.8503 13.2095 88.4176 12.9343 88.0273 12.6051C87.666 12.3026 87.368 11.9318 87.1502 11.5139C86.9301 11.0663 86.8206 10.5724 86.8311 10.0737C86.8311 9.42985 86.9449 8.87386 87.1724 8.40575C87.3923 7.94801 87.7052 7.54119 88.0913 7.21129C88.4917 6.87363 88.944 6.60282 89.4308 6.4093C89.9476 6.20032 90.4829 6.04036 91.0296 5.93152C91.591 5.81772 92.1589 5.73935 92.73 5.69689C93.3045 5.65537 93.8503 5.63433 94.3673 5.63376C94.9361 5.63376 95.5188 5.6622 96.1155 5.71908C96.7121 5.77596 97.3017 5.85587 97.8841 5.95882C98.4649 6.0612 99.0265 6.1798 99.5692 6.3146C100.004 6.42267 100.414 6.53643 100.797 6.65587C100.877 6.68002 100.946 6.72912 100.996 6.79595C101.046 6.86277 101.072 6.94377 101.072 7.02701L101.068 9.51745Z" fill="#4447E2"/>
    <path d="M124.909 13.3133C124.909 14.5646 124.678 15.6718 124.218 16.6347C123.764 17.5857 123.086 18.4118 122.241 19.0415C121.383 19.6865 120.343 20.1737 119.122 20.503C117.9 20.8324 116.527 20.997 115.004 20.997C113.48 20.997 112.104 20.8324 110.876 20.503C109.647 20.1737 108.6 19.6865 107.735 19.0415C106.884 18.4123 106.198 17.5858 105.737 16.633C105.269 15.6735 105.036 14.5663 105.036 13.3116C105.036 12.0568 105.269 10.95 105.737 9.99098C106.199 9.04053 106.884 8.21638 107.735 7.58927C108.599 6.94427 109.646 6.4571 110.876 6.12777C112.105 5.79844 113.481 5.6315 115.004 5.62695C116.527 5.62695 117.9 5.79162 119.122 6.12095C120.343 6.45027 121.383 6.93972 122.241 7.58927C123.086 8.21873 123.764 9.04491 124.218 9.9961C124.678 10.9511 124.909 12.0568 124.909 13.3133ZM120.923 13.3133C120.922 12.7592 120.834 12.2088 120.662 11.682C120.48 11.126 120.163 10.624 119.738 10.2213C119.296 9.78906 118.692 9.43812 117.926 9.16851C117.161 8.89891 116.187 8.76439 115.004 8.76496C114.302 8.75785 113.6 8.82131 112.91 8.95437C112.37 9.05717 111.845 9.22922 111.348 9.46627C110.94 9.66211 110.566 9.92127 110.239 10.2341C109.682 10.7748 109.302 11.4714 109.15 12.2323C109.076 12.5871 109.039 12.9484 109.038 13.3107C109.039 13.6784 109.076 14.0451 109.15 14.4053C109.224 14.7743 109.351 15.1306 109.527 15.4633C109.714 15.8114 109.954 16.1281 110.239 16.4018C110.566 16.7125 110.94 16.9689 111.348 17.1611C111.845 17.3973 112.37 17.5694 112.91 17.673C113.6 17.8054 114.302 17.8677 115.004 17.859C116.187 17.859 117.161 17.7245 117.926 17.4555C118.692 17.1864 119.296 16.8358 119.738 16.4035C120.163 16.0005 120.48 15.4983 120.662 14.942C120.834 14.416 120.922 13.8665 120.923 13.3133Z" fill="#4447E2"/>
    <path d="M132.443 9.50379V11.2673C132.443 11.3703 132.484 11.469 132.557 11.5418C132.63 11.6146 132.728 11.6555 132.831 11.6555H141.545C141.648 11.6555 141.747 11.6964 141.819 11.7692C141.892 11.842 141.933 11.9408 141.933 12.0437V14.3814C141.933 14.4844 141.892 14.5831 141.819 14.6559C141.747 14.7287 141.648 14.7696 141.545 14.7696H132.831C132.728 14.7696 132.63 14.8105 132.557 14.8833C132.484 14.9561 132.443 15.0549 132.443 15.1578V20.2163C132.443 20.3193 132.402 20.418 132.329 20.4908C132.257 20.5636 132.158 20.6045 132.055 20.6045H128.889C128.786 20.6045 128.687 20.5636 128.614 20.4908C128.541 20.418 128.501 20.3193 128.501 20.2163V6.39479C128.5 6.34378 128.51 6.29325 128.53 6.2461C128.549 6.19895 128.578 6.15611 128.614 6.12004C128.65 6.08397 128.693 6.05538 128.74 6.03591C128.787 6.01644 128.838 6.00648 128.889 6.00659H142.065C142.168 6.00659 142.267 6.04749 142.34 6.12029C142.413 6.19309 142.453 6.29183 142.453 6.39479V8.73166C142.453 8.83461 142.413 8.93335 142.34 9.00616C142.267 9.07896 142.168 9.11986 142.065 9.11986H132.831C132.729 9.11985 132.631 9.16016 132.558 9.23204C132.486 9.30393 132.444 9.40157 132.443 9.50379Z" fill="#4447E2"/>
    <path d="M154.006 9.56778V20.2163C154.005 20.3194 153.964 20.4181 153.891 20.4909C153.818 20.5637 153.72 20.6045 153.617 20.6045H150.451C150.348 20.6045 150.249 20.5637 150.176 20.4909C150.104 20.4181 150.062 20.3194 150.062 20.2163V9.56778C150.062 9.46482 150.021 9.36608 149.949 9.29328C149.876 9.22048 149.777 9.17958 149.674 9.17958H144.255C144.152 9.17958 144.054 9.13868 143.981 9.06588C143.908 8.99308 143.867 8.89434 143.867 8.79138V6.39479C143.867 6.29183 143.908 6.19309 143.981 6.12029C144.054 6.04749 144.152 6.00659 144.255 6.00659H159.823C159.926 6.00659 160.025 6.04749 160.098 6.12029C160.171 6.19309 160.212 6.29183 160.212 6.39479V8.79565C160.212 8.8986 160.171 8.99734 160.098 9.07014C160.025 9.14294 159.926 9.18384 159.823 9.18384H154.392C154.29 9.18429 154.193 9.2248 154.12 9.29663C154.048 9.36846 154.007 9.46586 154.006 9.56778Z" fill="#4447E2"/>
    <path d="M55.5799 24.8637C56.0351 24.8609 56.4895 24.9026 56.9365 24.9882C57.2896 25.0572 57.6375 25.151 57.9774 25.2689C58.0095 25.2798 58.0374 25.3005 58.0571 25.328C58.0768 25.3556 58.0875 25.3886 58.0874 25.4225V26.256C58.0875 26.2834 58.0806 26.3103 58.0674 26.3342C58.0543 26.3581 58.0353 26.3784 58.0122 26.393C57.9891 26.4077 57.9627 26.4162 57.9355 26.4179C57.9082 26.4197 57.881 26.4144 57.8562 26.4028C57.7829 26.3678 57.7044 26.3328 57.6233 26.2987C57.4404 26.2214 57.2525 26.1561 57.0611 26.1033C56.8473 26.0455 56.6302 26.0011 56.4109 25.9702C56.1691 25.9354 55.925 25.9183 55.6806 25.919C55.4021 25.9156 55.1238 25.9388 54.8496 25.9881C54.6405 26.025 54.4365 26.0869 54.2422 26.1724C54.0899 26.2387 53.9495 26.3295 53.8267 26.4412C53.7243 26.5359 53.6378 26.6465 53.5707 26.7688C53.5093 26.8795 53.4653 26.9989 53.4402 27.1229C53.4168 27.2383 53.4048 27.3558 53.4043 27.4735C53.4052 27.5812 53.4155 27.6885 53.435 27.7943C53.457 27.9149 53.4957 28.0318 53.5502 28.1416C53.6119 28.2639 53.6919 28.3761 53.7874 28.4743C53.9022 28.5902 54.0361 28.6854 54.1833 28.7559C54.3699 28.846 54.5671 28.9122 54.7703 28.953C55.0391 29.0063 55.3128 29.0311 55.5868 29.0272C55.7455 29.0272 55.8845 29.0221 56.0023 29.0127C56.12 29.0033 56.2284 28.9896 56.3256 28.9726C56.4182 28.9567 56.5099 28.9362 56.6004 28.9112L56.748 28.8693C56.7819 28.8597 56.8118 28.8392 56.833 28.811C56.8543 28.7829 56.8657 28.7485 56.8657 28.7132V28.3975C56.8656 28.3763 56.8613 28.3552 56.853 28.3356C56.8448 28.3159 56.8327 28.2981 56.8176 28.2832C56.8025 28.2682 56.7845 28.2563 56.7648 28.2483C56.7451 28.2403 56.724 28.2362 56.7027 28.2363H55.5245C55.4816 28.2361 55.4405 28.2189 55.4101 28.1886C55.3798 28.1582 55.3626 28.1171 55.3624 28.0742V27.3106C55.3626 27.2677 55.3798 27.2266 55.4101 27.1962C55.4405 27.1659 55.4816 27.1487 55.5245 27.1485H58.0448C58.0878 27.1485 58.129 27.1656 58.1594 27.196C58.1898 27.2264 58.2069 27.2676 58.2069 27.3106V29.5673C58.2068 29.6019 58.1957 29.6357 58.1752 29.6636C58.1546 29.6915 58.1257 29.7122 58.0926 29.7225C57.945 29.7686 57.7829 29.8078 57.6088 29.8497C57.3878 29.8991 57.1609 29.9418 56.9263 29.9768C56.6916 30.0118 56.4562 30.0382 56.2198 30.0578C55.9835 30.0775 55.7608 30.0868 55.5518 30.0868C55.2378 30.0877 54.9241 30.0657 54.6133 30.0211C54.3285 29.9815 54.0482 29.9144 53.7763 29.8206C53.5271 29.7365 53.2892 29.6219 53.0682 29.4794C52.8601 29.3443 52.6759 29.1756 52.523 28.9803C52.3685 28.7813 52.2498 28.557 52.1723 28.3173C52.0856 28.0461 52.0436 27.7625 52.0478 27.4778C52.0437 27.193 52.0876 26.9095 52.1775 26.6391C52.2592 26.3982 52.3822 26.1733 52.5409 25.9745C52.6993 25.779 52.8883 25.6105 53.1006 25.4754C53.326 25.3336 53.5675 25.2191 53.8198 25.1341C54.0924 25.0407 54.3732 24.9735 54.6585 24.9336C54.9635 24.8879 55.2715 24.8645 55.5799 24.8637Z" fill="#4447E2"/>
    <path d="M73.9558 29.9588H72.9388C72.8958 29.9588 72.8545 29.9418 72.8241 29.9114C72.7937 29.881 72.7767 29.8397 72.7767 29.7967V25.1563C72.7767 25.1133 72.7937 25.072 72.8241 25.0416C72.8545 25.0112 72.8958 24.9942 72.9388 24.9942H76.1374C76.4477 24.9878 76.7573 25.0254 77.0571 25.1059C77.2822 25.1669 77.4917 25.2754 77.6714 25.4242C77.8257 25.5578 77.9432 25.7288 78.0127 25.9207C78.0864 26.1288 78.1225 26.3484 78.1193 26.5691C78.1241 26.7559 78.0952 26.942 78.034 27.1186C77.9798 27.2664 77.8988 27.4029 77.7951 27.5213C77.6949 27.6343 77.5771 27.7302 77.4461 27.8054C77.3762 27.8464 77.3037 27.883 77.2294 27.9172C77.2065 27.9273 77.1862 27.9425 77.1701 27.9618C77.1541 27.981 77.1427 28.0038 77.1369 28.0281C77.1311 28.0525 77.1311 28.0779 77.1368 28.1024C77.1425 28.1268 77.1537 28.1495 77.1697 28.1689L78.4333 29.6935C78.4528 29.7172 78.4653 29.7459 78.4691 29.7764C78.473 29.8069 78.4681 29.8378 78.455 29.8656C78.442 29.8934 78.4213 29.9169 78.3954 29.9334C78.3695 29.95 78.3394 29.9588 78.3087 29.9588H77.1612C77.1372 29.959 77.1135 29.9537 77.0918 29.9436C77.0701 29.9334 77.051 29.9185 77.0358 29.9L75.6297 28.1893C75.6143 28.171 75.5952 28.1562 75.5735 28.1461C75.5518 28.1359 75.5282 28.1306 75.5043 28.1305H74.2783C74.2353 28.1305 74.194 28.1475 74.1636 28.1779C74.1332 28.2083 74.1162 28.2496 74.1162 28.2926V29.7967C74.1159 29.8394 74.099 29.8802 74.069 29.9105C74.0391 29.9408 73.9984 29.9582 73.9558 29.9588ZM76.7661 26.5623C76.7681 26.4788 76.7554 26.3957 76.7286 26.3166C76.703 26.2491 76.6567 26.1915 76.5964 26.1519C76.5198 26.1047 76.4345 26.0734 76.3455 26.0598C76.2158 26.0388 76.0845 26.0291 75.9531 26.0308H74.2783C74.2353 26.0308 74.194 26.0479 74.1636 26.0783C74.1332 26.1087 74.1162 26.1499 74.1162 26.1929V26.9317C74.1162 26.9747 74.1332 27.016 74.1636 27.0464C74.194 27.0768 74.2353 27.0938 74.2783 27.0938H75.9514C76.0828 27.0955 76.2141 27.0858 76.3438 27.0648C76.4328 27.0512 76.5181 27.0199 76.5947 26.9727C76.655 26.9332 76.7013 26.8755 76.7269 26.808C76.7542 26.729 76.7675 26.6459 76.7661 26.5623Z" fill="#4447E2"/>
    <path d="M100.262 27.4769C100.27 27.8661 100.189 28.2519 100.027 28.6057C99.8734 28.9293 99.6426 29.2102 99.355 29.4239C99.0364 29.6558 98.6765 29.8246 98.2945 29.9213C97.3731 30.1454 96.4115 30.1454 95.4901 29.9213C95.1059 29.8248 94.7437 29.656 94.4228 29.4239C94.1321 29.2107 93.8979 28.9298 93.7402 28.6057C93.5833 28.2499 93.5022 27.8654 93.5022 27.4765C93.5022 27.0877 93.5833 26.7031 93.7402 26.3473C93.8979 26.0232 94.1321 25.7424 94.4228 25.5291C94.7437 25.2971 95.1059 25.1282 95.4901 25.0317C96.4115 24.8076 97.3731 24.8076 98.2945 25.0317C98.6765 25.1284 99.0364 25.2972 99.355 25.5291C99.6424 25.7431 99.8732 26.0239 100.027 26.3473C100.189 26.7014 100.27 27.0876 100.262 27.4769ZM98.9071 27.4769C98.9076 27.2885 98.8788 27.1011 98.8218 26.9215C98.7598 26.7326 98.6519 26.562 98.5078 26.425C98.3305 26.2625 98.12 26.1406 97.8909 26.0675C97.5699 25.9667 97.2342 25.9203 96.8978 25.9301C96.6588 25.927 96.4201 25.9481 96.1854 25.9933C96.0017 26.0284 95.8233 26.0872 95.6548 26.1682C95.5165 26.2354 95.3895 26.3238 95.2785 26.4301C95.0884 26.6145 94.9592 26.8527 94.9082 27.1126C94.8832 27.2333 94.8706 27.3563 94.8707 27.4795C94.8706 27.6045 94.8832 27.7291 94.9082 27.8515C94.9338 27.9766 94.9769 28.0976 95.0362 28.2107C95.1 28.3292 95.1818 28.4371 95.2785 28.5306C95.3897 28.6352 95.5167 28.7216 95.6548 28.7866C95.8237 28.8657 96.002 28.9231 96.1854 28.9572C96.4201 29.0024 96.6588 29.0235 96.8978 29.0204C97.2342 29.0302 97.5699 28.9838 97.8909 28.883C98.12 28.8099 98.3305 28.6879 98.5078 28.5255C98.6519 28.3885 98.7598 28.2179 98.8218 28.029C98.8785 27.8505 98.9073 27.6642 98.9071 27.4769Z" fill="#4447E2"/>
    <path d="M119.946 28.9188C119.81 29.1516 119.62 29.3484 119.393 29.493C119.11 29.6733 118.799 29.8051 118.473 29.8829C117.624 30.074 116.742 30.074 115.893 29.8829C115.566 29.8063 115.254 29.675 114.97 29.4947C114.742 29.3501 114.553 29.1533 114.417 28.9205C114.296 28.7067 114.232 28.465 114.233 28.2192V25.0889C114.233 25.0459 114.25 25.0048 114.281 24.9745C114.311 24.9441 114.352 24.927 114.395 24.9268H115.408C115.451 24.927 115.492 24.9441 115.522 24.9745C115.552 25.0048 115.569 25.0459 115.57 25.0889V27.7388C115.569 27.898 115.59 28.0566 115.633 28.2098C115.675 28.3589 115.757 28.4935 115.871 28.5989C116.012 28.7233 116.18 28.8135 116.362 28.8625C116.63 28.9346 116.907 28.9674 117.185 28.9598C117.46 28.9672 117.735 28.9345 118.001 28.8625C118.183 28.8133 118.35 28.7231 118.491 28.5989C118.604 28.4936 118.686 28.3589 118.727 28.2098C118.769 28.0563 118.79 27.8979 118.789 27.7388V25.0889C118.789 25.0459 118.806 25.0048 118.837 24.9745C118.867 24.9441 118.908 24.927 118.951 24.9268H119.968C120.011 24.927 120.052 24.9441 120.082 24.9745C120.113 25.0048 120.13 25.0459 120.13 25.0889V28.2192C120.13 28.4644 120.067 28.7055 119.946 28.9188Z" fill="#4447E2"/>
    <path d="M140.54 26.6886C140.542 26.9205 140.505 27.1512 140.431 27.3711C140.361 27.5764 140.241 27.7612 140.083 27.9095C139.903 28.0709 139.69 28.1911 139.459 28.2619C139.157 28.3529 138.842 28.3955 138.526 28.3881H136.463C136.42 28.3881 136.379 28.4052 136.348 28.4356C136.318 28.4659 136.301 28.5072 136.3 28.5502V29.7942C136.3 29.8372 136.283 29.8784 136.253 29.9088C136.222 29.9392 136.181 29.9563 136.138 29.9563H135.122C135.079 29.9563 135.038 29.9392 135.008 29.9088C134.977 29.8784 134.96 29.8372 134.96 29.7942V25.1563C134.96 25.1133 134.977 25.072 135.008 25.0416C135.038 25.0112 135.079 24.9942 135.122 24.9942H138.523C138.838 24.9871 139.153 25.0292 139.455 25.1187C139.687 25.1879 139.9 25.3077 140.079 25.4694C140.238 25.617 140.357 25.8013 140.428 26.006C140.503 26.2257 140.541 26.4564 140.54 26.6886ZM139.184 26.7108C139.187 26.6091 139.17 26.5078 139.136 26.4122C139.103 26.3298 139.048 26.2589 138.975 26.2082C138.886 26.1497 138.787 26.1097 138.682 26.0905C138.536 26.0633 138.387 26.0508 138.238 26.053H136.463C136.42 26.053 136.379 26.07 136.348 26.1004C136.318 26.1308 136.301 26.172 136.3 26.2151V27.1698C136.301 27.2129 136.318 27.2541 136.348 27.2845C136.379 27.3148 136.42 27.3319 136.463 27.3319H138.238C138.387 27.3338 138.535 27.3236 138.682 27.3012C138.786 27.2867 138.886 27.251 138.975 27.1962C139.047 27.1498 139.103 27.0826 139.136 27.0034C139.17 26.9099 139.187 26.8105 139.184 26.7108Z" fill="#4447E2"/>
    </svg>

